# Blender 4.0.2
# www.blender.org
mtllib wall2.mtl
o wall.001
v -2.459853 3.148975 -2.000001
v -0.945224 3.148975 -2.000001
v -0.945224 2.712194 -2.000001
v 2.459853 3.148975 -2.000001
v 2.459853 2.712194 -2.000001
v -2.488137 3.148975 -2.028285
v -0.945224 3.148975 -2.040001
v -0.957285 2.724254 -2.036182
v 2.488137 3.148975 -2.028285
v 2.496034 2.724254 -2.012061
v -2.459853 0.015445 -2.000000
v -2.451227 0.015445 -2.000000
v -0.945224 0.015445 -2.000000
v -2.488137 0.015445 -2.028284
v -2.479457 0.015445 -2.028329
v -0.973417 0.015445 -2.028329
vn -0.0000 -0.0000 1.0000
vn -0.0000 0.7071 0.7071
vn 0.2731 0.6910 0.6693
vn -0.0000 0.8321 0.5547
vn -0.0027 -0.0169 -0.9999
vn -0.0037 0.4499 -0.8931
vn -0.0014 0.7027 -0.7115
vn -0.0028 -0.7068 -0.7074
vn 0.0008 -0.8329 -0.5535
vn 0.0029 0.4229 -0.9062
vn 0.0019 -0.0363 -0.9993
vn -0.0000 -0.7071 0.7071
vn -0.0000 -0.4483 0.8939
vn 0.2785 -0.6873 0.6709
vn -0.0046 -0.4496 -0.8932
vt 0.025373 0.815326
vt 0.003906 0.815326
vt 0.003906 0.740887
vt 0.025373 0.982675
vt 0.003906 0.982675
vt 0.157913 0.741309
vt 0.157913 0.815326
vt 0.157910 0.741311
vt 0.157910 0.815326
vt 0.157910 0.740887
vt 0.000000 0.000000
s 1
usemtl EMISSIVO.001
f 3/1/1 2/2/2 1/3/3
f 3/1/1 5/4/1 4/5/4 2/2/2
f 8/1/5 6/3/6 7/2/7
f 15/6/8 6/3/6 8/1/5 16/7/9
f 9/5/10 10/4/11 8/1/5 7/2/7
f 1/3/3 12/8/12 13/9/13 3/1/1
f 1/3/3 7/2/7 6/3/6
f 4/5/4 7/2/7 2/2/2
f 1/3/3 11/10/14 12/8/12
f 15/6/8 14/10/15 6/3/6
f 1/3/3 2/2/2 7/2/7
f 4/5/4 9/5/10 7/2/7
f 14/11/15 15/11/8 11/11/14
f 15/11/8 16/11/9 12/11/12
f 12/11/12 11/11/14 15/11/8
f 13/11/13 12/11/12 16/11/9
o wall.002
v -2.459853 3.148976 2.171361
v -2.488137 3.148976 2.199645
v -2.459853 0.015446 2.150903
v -2.452764 0.015446 2.171362
v -2.459853 0.015446 2.171362
v -2.488137 0.015446 2.178910
v -2.480840 0.015446 2.199732
v -2.488137 0.015446 2.199646
v -1.516506 2.122396 2.171361
v -1.516506 2.183443 2.171361
v -1.516506 2.055165 2.171361
v -1.516506 0.015446 2.171362
v -1.516506 2.121758 2.211118
v -1.516506 2.183443 2.210429
v -1.516506 2.056444 2.211118
v -1.516506 0.015446 2.211119
vn 0.0518 -0.2225 -0.9736
vn 0.5528 -0.0000 -0.8333
vn 0.7071 -0.0000 -0.7071
vn -0.0000 -0.7071 -0.7071
vn 0.5774 -0.5774 -0.5774
vn -0.0083 -0.7071 0.7071
vn 0.5742 -0.5767 0.5811
vn 0.7029 -0.0000 0.7113
vn -0.0197 0.0004 0.9998
vn -0.5539 -0.8326 -0.0000
vn -0.5804 -0.5780 0.5736
vn 0.3015 -0.9045 -0.3015
vn 0.9918 -0.1271 -0.0108
vn 0.7027 0.0019 0.7115
vn 0.5579 0.0093 0.8298
vt 0.003906 0.535877
vt 0.051359 0.489515
vt 0.054359 0.489514
vt 0.157910 0.535529
vt 0.057664 0.489514
vt 0.157910 0.489514
vt 0.157910 0.489486
vt 0.057601 0.489486
vt 0.157910 0.536882
vt 0.157910 0.535877
vt 0.054391 0.489486
vt 0.051359 0.489404
vt 0.000000 0.000000
s 1
usemtl EMISSIVO.001
f 17/12/16 26/13/17 25/14/18
f 20/15/19 27/16/18 28/17/20
f 17/12/16 25/14/18 27/16/18
f 23/15/21 32/18/22 31/19/23
f 18/12/24 22/20/25 24/21/26
f 24/21/26 31/19/23 18/12/24
f 17/12/16 21/21/27 19/20/28
f 20/15/19 21/21/27 27/16/18
f 21/21/27 17/12/16 27/16/18
f 18/12/24 29/22/29 30/23/30
f 23/15/21 31/19/23 24/21/26
f 31/19/23 29/22/29 18/12/24
f 20/24/19 28/24/20 32/24/22
f 23/24/21 24/24/26 22/24/25
f 20/24/19 32/24/22 23/24/21
f 21/24/27 20/24/19 23/24/21
f 23/24/21 22/24/25 21/24/27
f 21/24/27 22/24/25 19/24/28
f 27/24/18 25/24/18 29/24/29 31/24/23
f 30/24/30 29/24/29 25/24/18 26/24/17
f 27/24/18 31/24/23 32/24/22 28/24/20
o wall.003
v -2.459853 3.148975 -2.000001
v -2.459853 3.148976 2.171361
v -2.488137 3.148975 -2.028285
v -2.488137 3.148976 2.199645
v -2.459853 0.015446 2.150903
v -2.459853 0.015445 -2.000000
v -2.488137 0.015446 2.178910
v -2.488137 0.015445 -2.028284
vn -0.8937 0.4487 -0.0000
vn -0.8945 0.4471 -0.0012
vn -0.8944 -0.4472 -0.0000
vn -0.8941 -0.4479 -0.0000
vn 0.0184 0.9737 -0.2271
vn 0.1530 -0.8924 -0.4246
vn 0.0039 -0.9732 0.2299
vn -0.0914 0.9833 0.1572
vt 0.003906 0.535877
vt 0.003906 0.740887
vt 0.157910 0.740887
vt 0.157910 0.536882
vt 0.000000 0.000000
s 1
usemtl EMISSIVO.001
f 36/25/31 35/26/32 40/27/33 39/28/34
f 34/26/35 37/27/36 38/28/37 33/25/38
f 33/26/38 36/25/31 34/25/35
f 33/26/38 35/26/32 36/25/31
f 39/29/34 40/29/33 37/29/36
f 38/29/37 37/29/36 40/29/33
o wall.004
v 2.459853 3.148976 2.171361
v 2.459853 1.120027 -1.331169
v 2.798860 1.120027 -1.331169
v 2.459853 1.120027 -2.007213
v 2.459853 2.589675 -1.331170
v 2.459853 2.589675 -2.007214
v 2.798860 1.120027 -2.007213
v 2.798860 2.589675 -1.331170
v 2.798860 2.589675 -2.007214
v 2.459853 3.148975 0.033081
v 2.459853 3.148975 0.217298
v 2.459853 3.148975 -2.000001
v 2.459853 2.712194 -2.000001
v 2.488137 3.148976 2.199645
v 2.496034 1.107967 -1.319109
v 2.821954 1.096933 -1.308075
v 2.496034 1.107967 -2.019274
v 2.496034 2.601736 -1.319110
v 2.496034 2.601736 -2.019274
v 2.821954 1.096933 -2.030307
v 2.821954 2.612769 -1.308076
v 2.821954 2.612769 -2.030308
v 2.488137 3.148975 0.061366
v 2.488137 3.148975 0.189013
v 2.488137 3.148975 -2.028285
v 2.496034 2.724254 -2.012061
v 2.459853 0.015445 0.014269
v 2.459853 0.015445 -2.324824
v 2.459853 0.015445 0.033082
v 2.459853 0.015446 2.161778
v 2.455832 0.015445 0.033082
v 2.459853 0.015446 0.217299
v 2.488247 0.015445 0.042123
v 2.488247 0.015445 -2.352394
v 2.488137 0.015445 0.061367
v 2.488137 0.015446 2.189785
v 2.484116 0.015445 0.061367
v 2.488137 0.015445 0.189014
vn -0.7071 -0.7071 -0.0000
vn -0.9045 0.3015 -0.3015
vn -0.4828 -0.8757 -0.0000
vn -0.3015 -0.9045 -0.3015
vn -0.5627 -0.5846 0.5846
vn -0.5774 -0.5774 0.5774
vn -0.5774 -0.5774 -0.5774
vn -0.9045 -0.3015 -0.3015
vn -0.6401 0.5433 0.5433
vn -0.5774 0.5774 0.5773
vn 0.5596 0.5860 -0.5860
vn 0.5596 0.5860 0.5860
vn 0.5596 -0.5860 0.5860
vn 0.5596 -0.5860 -0.5860
vn -0.5547 0.8321 -0.0000
vn -1.0000 -0.0000 -0.0000
vn -0.5774 0.5774 -0.5774
vn -0.5547 0.8321 -0.0004
vn 0.5205 0.6063 -0.6013
vn 0.8942 0.3192 0.3140
vn 0.7072 -0.7070 0.0032
vn 0.8443 -0.5359 -0.0000
vn 0.8954 -0.3153 0.3144
vn 0.5755 -0.5777 0.5788
vn 0.6111 -0.5620 -0.5574
vn 0.8932 0.4497 0.0046
vn -0.0000 -0.8323 0.5544
vn 0.8937 -0.4487 -0.0000
vn 0.8944 -0.4472 -0.0000
vn 0.8944 0.4472 -0.0000
vn 0.8941 0.4479 -0.0000
vn 0.9998 0.0187 -0.0084
vn 0.8836 0.4682 0.0066
vn -0.0000 -0.4475 -0.8943
vn -0.5540 0.8325 -0.0000
vn -0.5547 -0.8320 -0.0000
vn -0.5563 -0.8310 -0.0000
vt 0.168195 0.480681
vt 0.222482 0.546804
vt 0.168195 0.595639
vt 0.168195 0.479756
vt 0.354328 0.471772
vt 0.370989 0.471772
vt 0.370989 0.504997
vt 0.354328 0.504997
vt 0.354328 0.399543
vt 0.370989 0.399543
vt 0.503841 0.366318
vt 0.537067 0.366318
vt 0.537067 0.294089
vt 0.503841 0.294089
vt 0.294711 0.546804
vt 0.322199 0.579675
vt 0.300732 0.579675
vt 0.354328 0.294089
vt 0.370989 0.294089
vt 0.370989 0.366318
vt 0.354328 0.366318
vt 0.294711 0.580030
vt 0.322199 0.479756
vt 0.168203 0.480691
vt 0.168203 0.595632
vt 0.168195 0.479558
vt 0.168195 0.294560
vt 0.168195 0.390125
vt 0.322199 0.390125
vt 0.322199 0.294089
vt 0.000000 0.000000
vt 0.222482 0.580030
s 1
usemtl EMISSIVO.001
f 67/30/39 42/31/40 68/32/41
f 69/33/42 42/31/40 67/30/39
f 46/34/43 49/35/44 48/36/45 45/37/46
f 44/38/47 47/39/48 49/35/44 46/34/43
f 62/40/49 61/41/50 56/42/51 60/43/52
f 45/44/46 52/45/53 53/46/54
f 45/47/46 48/48/45 43/49/55 42/50/40
f 53/46/54 46/51/43 45/44/46
f 45/44/46 50/52/56 52/45/53
f 61/36/50 62/35/49 59/34/57 58/37/58
f 73/53/59 74/54/60 55/31/61
f 55/31/61 75/33/62 73/53/59
f 62/35/49 60/39/52 57/38/63 59/34/57
f 60/39/52 56/49/51 55/50/61 57/38/63
f 42/50/40 43/49/55 47/39/48 44/38/47
f 63/52/64 77/55/65 75/33/62
f 76/56/66 78/57/67 64/58/68 54/59/69
f 58/44/58 66/46/70 65/45/71
f 69/33/42 50/52/56 45/44/46 42/31/40
f 66/46/70 58/44/58 59/51/57
f 58/44/58 65/45/71 63/52/64
f 43/42/55 48/41/45 49/40/44 47/43/48
f 51/58/53 54/59/69 64/58/68
f 50/52/56 65/45/71 52/45/53
f 77/60/65 71/60/72 69/60/42
f 56/49/51 61/48/50 58/47/58 55/50/61
f 50/52/56 69/33/42 71/55/72
f 68/32/41 42/31/40 44/61/47
f 57/61/63 55/31/61 74/54/60
f 51/58/53 41/59/73 54/59/69
f 50/52/56 63/52/64 65/45/71
f 63/52/64 75/33/62 55/31/61 58/44/58
f 74/60/60 73/60/59 67/60/39
f 73/60/59 75/60/62 77/60/65
f 73/60/59 77/60/65 69/60/42
f 74/60/60 67/60/39 68/60/41
f 78/60/67 76/60/66 72/60/74
f 76/60/66 70/60/75 72/60/74
f 67/60/39 73/60/59 69/60/42
f 41/59/73 51/58/53 72/57/74 70/56/75
o wall.005
v 2.459853 3.148976 2.171361
v 2.488137 3.148976 2.199645
v 2.459853 0.015446 2.171362
v 2.436100 0.015446 2.171362
v 2.459853 0.015446 2.161778
v 2.488137 0.015446 2.199646
v 2.464176 0.015446 2.199732
v 2.488137 0.015446 2.189785
v -0.614300 2.150532 2.171361
v -0.614300 1.998838 2.171361
v -0.614300 0.015446 2.171362
v -0.614300 2.183443 2.171361
v -0.614300 2.150094 2.210801
v -0.614300 1.999717 2.210801
v -0.614300 0.015446 2.210802
v -0.614300 2.183443 2.210429
vn -0.0024 -0.0000 -1.0000
vn -0.8930 -0.4502 -0.0000
vn -0.3015 -0.9045 -0.3015
vn 0.0025 -0.7071 0.7071
vn 0.0060 0.0001 1.0000
vn -0.7058 -0.0000 0.7084
vn -0.5764 -0.5772 0.5785
vn -0.7071 -0.0000 -0.7071
vn -0.5403 -0.5403 -0.6450
vn -0.5455 -0.5344 0.6456
vn -0.7051 0.0032 0.7091
vn -0.0000 -0.7071 -0.7071
vn -0.5774 -0.5774 -0.5774
vn 0.5783 -0.5775 0.5762
vn 0.5547 -0.8320 -0.0000
vt 0.322199 0.294089
vt 0.168195 0.294560
vt 0.168195 0.294089
vt 0.157910 0.295256
vt 0.003906 0.294089
vt 0.060389 0.445241
vt 0.157910 0.445241
vt 0.052977 0.445174
vt 0.051359 0.445174
vt 0.000000 0.000000
vt 0.052998 0.445241
vt 0.157910 0.445175
vt 0.060432 0.445175
vt 0.157910 0.294089
vt 0.051359 0.445227
s 1
usemtl EMISSIVO.001
f 79/62/76 83/63/77 81/64/78
f 85/65/79 80/66/80 92/67/81 93/68/82
f 79/66/76 87/69/83 90/70/84
f 94/71/85 90/71/84 87/71/83 91/71/86
f 80/66/80 91/72/86 92/67/81
f 82/65/87 89/73/88 88/74/83 79/66/76
f 92/71/81 88/71/83 89/71/88 93/71/82
f 87/69/83 79/66/76 88/74/83
f 79/66/76 81/75/78 82/65/87
f 85/65/79 84/75/89 80/66/80
f 80/62/80 84/64/89 86/63/90
f 94/76/85 91/72/86 80/66/80
f 86/71/90 84/71/89 85/71/79
f 85/71/79 93/71/82 82/71/87
f 93/71/82 89/71/88 82/71/87
f 86/71/90 85/71/79 81/71/78
f 83/71/77 86/71/90 81/71/78
f 85/71/79 82/71/87 81/71/78
f 92/71/81 91/71/86 87/71/83 88/71/83
o wall.006
v -2.459853 3.148976 2.171361
v 2.459853 3.148976 2.171361
v -2.488137 3.148976 2.199645
v 2.488137 3.148976 2.199645
v -1.516506 2.183443 2.171361
v -0.904315 2.183443 2.171361
v -0.614300 2.183443 2.171361
v -1.516506 2.183443 2.210429
v -0.906563 2.183443 2.210429
v -0.614300 2.183443 2.210429
vn -0.0000 0.7124 0.7017
vn -0.0000 0.0112 0.9999
vn 0.2561 0.9419 -0.2174
vn -0.0000 0.9340 0.3573
vn -0.0000 0.9918 -0.1281
vn -0.0000 -0.0000 -1.0000
vt 0.003906 0.535877
vt 0.051359 0.489404
vt 0.051359 0.459428
vt 0.051359 0.445227
vt 0.003906 0.294089
vt 0.051359 0.489515
vt 0.051359 0.445174
s 1
usemtl EMISSIVO.001
f 97/77/91 102/78/92 103/79/92
f 97/77/91 103/79/92 104/80/92
f 95/77/93 98/81/94 96/81/95
f 95/77/93 100/79/96 99/82/96
f 100/79/96 95/77/93 101/83/96
f 95/77/93 96/81/95 101/83/96
f 98/81/94 97/77/91 104/80/92
f 95/77/93 97/77/91 98/81/94
o wall.007
v 2.459853 3.148975 0.033081
v 2.459853 3.148975 0.217298
v 1.640099 3.148975 0.033081
v 1.640099 3.148975 0.217298
v 2.488137 3.148975 0.061366
v 2.488137 3.148975 0.189013
v 1.668383 3.148975 0.061366
v 1.668383 3.148975 0.189013
v 1.640099 0.015446 0.216395
v 1.640099 0.015446 0.217299
v 2.455832 0.015445 0.033082
v 1.644120 0.015446 0.217299
v 2.459853 0.015446 0.217299
v 1.640099 0.015445 0.033082
v 1.668383 0.015445 0.188388
v 1.668383 0.015445 0.189014
v 2.484116 0.015445 0.061367
v 1.672404 0.015445 0.189014
v 2.488137 0.015445 0.189014
v 1.668383 0.015445 0.061367
vn -0.5774 0.5773 0.5773
vn -0.7071 -0.7071 -0.0000
vn -0.5774 -0.5774 0.5774
vn -0.0000 0.4475 0.8943
vn 0.3015 0.9045 0.3015
vn 0.3015 -0.9045 0.3015
vn -0.0000 -0.4469 0.8946
vn -0.0000 -0.7071 -0.7071
vn 0.3015 0.9045 -0.3015
vn -0.0000 0.4472 -0.8944
vn -0.0000 -0.4472 -0.8944
vn -0.0000 -0.8318 -0.5550
vn -0.5774 -0.5774 -0.5773
vn -0.5774 0.5774 -0.5773
vn -0.0000 0.8323 -0.5544
vn 0.7071 -0.7071 -0.0000
vn -0.0000 -0.7071 0.7071
vn -0.0000 -0.8320 0.5547
vn -0.0000 0.8320 0.5547
vn 0.3015 -0.9045 -0.3015
vt 0.322199 0.430414
vt 0.168195 0.430458
vt 0.168195 0.430414
vt 0.322199 0.479756
vt 0.322199 0.439467
vt 0.168195 0.439467
vt 0.168195 0.479558
vt 0.168195 0.430216
vt 0.322199 0.390125
vt 0.168195 0.390125
vt 0.000000 0.000000
s 1
usemtl EMISSIVO.001
f 108/84/97 113/85/98 114/86/99
f 109/87/100 111/88/101 124/89/102 121/90/103
f 122/91/104 112/84/105 110/92/106 123/93/107
f 115/90/108 118/89/109 107/88/110 105/87/111
f 108/84/97 107/88/110 118/89/109 113/85/98
f 119/85/112 124/89/102 111/88/101 112/84/105
f 108/84/97 116/91/113 117/93/114 106/92/115
f 108/84/97 111/88/101 107/88/110
f 105/87/111 111/88/101 109/87/100
f 106/92/115 112/84/105 108/84/97
f 108/84/97 114/86/99 116/91/113
f 112/84/105 120/86/116 119/85/112
f 122/91/104 120/86/116 112/84/105
f 108/84/97 112/84/105 111/88/101
f 105/87/111 107/88/110 111/88/101
f 106/92/115 110/92/106 112/84/105
f 116/94/113 114/94/99 113/94/98
f 116/94/113 113/94/98 120/94/116
f 113/94/98 118/94/109 124/94/102
f 122/94/104 123/94/107 117/94/114
f 120/94/116 122/94/104 116/94/113
f 122/94/104 117/94/114 116/94/113
f 119/94/112 120/94/116 113/94/98
f 124/94/102 119/94/112 113/94/98
f 124/94/102 118/94/109 115/94/108
f 121/94/103 124/94/102 115/94/108
o wall.008
v 2.459853 1.120027 -2.007213
v 2.459853 2.589675 -2.007214
v -0.051921 1.006726 -2.338720
v 1.579698 2.499999 -2.338720
v 1.579698 1.006726 -2.338720
v -0.051921 2.499999 -2.338720
v -0.051921 1.006726 -2.670952
v 1.579698 2.499999 -2.670953
v 1.579698 1.006726 -2.670952
v -0.051921 2.499999 -2.670953
v -0.192863 0.784076 -2.670952
v 1.720639 2.615922 -2.670953
v 1.720639 0.784076 -2.670952
v -0.192863 2.615922 -2.670953
v -0.945224 2.712194 -2.000001
v -0.945224 2.712193 -2.338720
v 2.459853 2.712193 -2.338720
v 2.459853 2.712194 -2.000001
v 2.496034 1.107967 -2.019274
v 2.496034 2.601736 -2.019274
v -0.063982 0.994666 -2.374901
v 1.591758 2.512059 -2.374902
v 1.591758 0.994666 -2.374901
v -0.063982 2.512059 -2.374902
v -0.063982 0.994666 -2.634771
v 1.591758 2.512059 -2.634771
v 1.591758 0.994666 -2.634771
v -0.063982 2.512059 -2.634771
v -0.192863 0.784076 -2.630952
v 1.720639 2.615922 -2.630953
v 1.720639 0.784076 -2.630952
v -0.192863 2.615922 -2.630953
v -0.957285 2.724254 -2.036182
v -0.968318 2.735287 -2.361814
v 2.482947 2.735287 -2.361814
v 2.496034 2.724254 -2.012061
v 2.459853 0.015445 -2.324824
v 2.459853 0.015445 -2.338719
v 2.459853 0.015445 -2.334147
v 2.446348 0.015445 -2.338719
v 2.421314 0.015445 -2.338719
v -0.945224 0.015445 -2.338719
v -0.931518 0.015445 -2.338719
v -0.945224 0.015445 -2.336790
v -0.945224 0.015445 -2.000000
v 2.488247 0.015445 -2.352394
v 2.488108 0.015445 -2.366974
v 2.488247 0.015445 -2.362155
v 2.474217 0.015445 -2.367126
v 2.448504 0.015445 -2.367126
v -0.973480 0.015445 -2.366974
v -0.959385 0.015445 -2.367126
v -0.973417 0.015445 -2.365127
v -0.973417 0.015445 -2.028329
vn 0.2888 -0.2962 0.9104
vn 0.2915 0.2869 0.9126
vn 0.3033 0.3305 -0.8937
vn 0.3062 -0.3036 -0.9023
vn -0.3015 -0.9045 0.3015
vn -0.0000 -0.7071 0.7071
vn -0.0000 -0.7099 -0.7043
vn 0.0057 -0.7061 -0.7081
vn -0.3015 0.3015 0.9045
vn -0.3015 0.3015 -0.9045
vn 0.3015 0.3015 -0.9045
vn 0.3015 0.3015 0.9045
vn -0.5774 0.5774 -0.5774
vn -0.5739 0.5745 0.5836
vn 0.5739 0.5745 0.5836
vn 0.5774 0.5774 -0.5774
vn -0.2915 0.2869 0.9126
vn -0.2992 0.3309 -0.8950
vn -1.0000 -0.0000 -0.0000
vn -0.7071 -0.7071 -0.0000
vn -0.5774 -0.5773 0.5774
vn -0.3015 -0.3015 0.9045
vn 0.3015 -0.3015 0.9045
vn 0.5774 -0.5773 0.5773
vn 0.3015 -0.9045 0.3015
vn 0.5774 -0.5774 -0.5774
vn -0.2888 -0.2962 0.9104
vn -0.3061 -0.3036 -0.9023
vn 0.3015 -0.3015 -0.9045
vn -0.3015 -0.3015 -0.9045
vn -0.6935 -0.7205 -0.0000
vn 0.7071 -0.7071 -0.0000
vn -0.9179 -0.3968 -0.0000
vn 0.5756 -0.5748 0.5816
vn -0.5756 -0.5748 0.5816
vn 0.8950 -0.4461 -0.0000
vn -0.5774 -0.5774 -0.5774
vn -0.5578 -0.8299 0.0083
vn -0.6986 0.7147 0.0342
vn -0.5882 0.5831 -0.5604
vn -0.7040 -0.7099 0.0214
vn 0.9996 0.0018 -0.0295
vn 0.5716 -0.5785 -0.5819
vn 0.5726 0.5829 -0.5765
vn -0.5913 -0.5751 -0.5653
vn 0.7186 0.6954 0.0092
vn 0.9994 -0.0052 -0.0335
vn 0.6212 -0.7836 -0.0000
vn 0.7096 -0.7045 -0.0122
vn -0.0056 -0.7061 -0.7080
vt 0.347295 0.367479
vt 0.347295 0.294089
vt 0.330967 0.294089
vt 0.330967 0.367479
vt 0.000000 0.000000
vt 0.347295 0.447668
vt 0.330967 0.447668
vt 0.380026 0.388132
vt 0.380026 0.294089
vt 0.347295 0.601246
vt 0.347295 0.521057
vt 0.330967 0.521057
vt 0.330967 0.601246
vt 0.222482 0.580030
vt 0.168195 0.596322
vt 0.168195 0.596097
vt 0.216914 0.639579
vt 0.300732 0.596322
vt 0.290304 0.639579
vt 0.168195 0.598216
vt 0.216914 0.719768
vt 0.290304 0.719768
vt 0.300732 0.763671
vt 0.168195 0.763671
vt 0.168195 0.762997
vt 0.459113 0.301016
vt 0.470055 0.294089
vt 0.459113 0.381205
vt 0.385723 0.381205
vt 0.385723 0.301016
vt 0.294711 0.580030
vt 0.300732 0.579675
vt 0.168195 0.763766
vt 0.168195 0.595639
vt 0.470055 0.388132
vt 0.300732 0.780318
vt 0.168195 0.780318
vt 0.168195 0.596986
vt 0.168192 0.780318
vt 0.168192 0.763765
vt 0.168189 0.596322
vt 0.168204 0.598239
vt 0.168189 0.763671
vt 0.478144 0.294089
vt 0.478144 0.461438
vt 0.494791 0.461438
vt 0.494791 0.294089
vt 0.168203 0.595632
vt 0.168203 0.596095
vt 0.168204 0.596994
vt 0.168204 0.762989
s 1
usemtl EMISSIVO.001
f 151/95/117 150/96/118 146/97/119 147/98/120
f 162/99/121 164/99/122 174/99/123 173/99/124
f 129/98/125 133/95/126 131/100/127 127/101/128
f 138/102/129 156/102/130 154/103/131 136/103/132
f 150/104/118 152/105/133 148/106/134 146/107/119
f 125/108/135 162/109/121 163/110/136
f 129/111/125 141/112/137 128/113/138
f 165/114/122 129/111/125 127/115/128
f 130/116/139 141/112/137 140/117/140
f 127/115/128 166/118/141 167/119/122
f 133/120/126 136/103/132 137/121/142
f 149/100/143 145/101/144 148/106/134 152/105/133
f 130/106/139 127/101/128 131/100/127 134/105/145
f 131/122/127 138/102/129 134/123/145
f 134/123/145 136/103/132 132/124/146
f 149/100/143 151/95/117 147/98/120 145/101/144
f 141/112/137 126/125/135 142/126/147
f 140/117/140 168/127/148 166/118/141
f 161/128/149 125/108/135 163/110/136
f 155/121/150 151/120/117 149/122/143 153/129/151
f 140/117/140 139/130/148 169/131/152 168/127/148
f 125/108/135 126/125/135 141/112/137
f 162/109/121 129/111/125 164/132/122
f 165/114/122 127/115/128 167/119/122
f 130/116/139 128/113/138 141/112/137
f 127/115/128 130/116/139 140/117/140
f 133/120/126 132/124/146 136/103/132
f 131/122/127 135/129/153 138/102/129
f 134/123/145 138/102/129 136/103/132
f 178/133/154 157/130/155 158/117/156 177/134/157
f 143/108/158 171/135/159 159/112/160
f 147/111/120 146/113/119 159/112/160
f 147/111/120 174/136/123 145/115/144
f 148/116/134 158/117/156 159/112/160
f 145/115/144 175/137/161 158/117/156
f 151/120/117 155/121/150 154/103/131
f 135/129/153 153/129/151 156/102/130 138/102/129
f 130/106/139 134/105/145 132/104/146 128/107/138
f 128/97/138 132/96/146 133/95/126 129/98/125
f 131/122/127 133/120/126 137/121/142 135/129/153
f 149/122/143 152/123/133 156/102/130
f 152/123/133 150/124/118 154/103/131
f 159/138/160 158/139/156 157/140/155 160/141/162
f 159/112/160 160/126/162 144/125/163
f 143/108/158 170/142/164 172/143/165
f 143/108/158 159/112/160 144/125/163
f 147/111/120 171/135/159 173/144/124
f 174/136/123 176/145/166 145/115/144
f 148/116/134 159/112/160 146/113/119
f 145/115/144 158/117/156 148/116/134
f 151/120/117 154/103/131 150/124/118
f 149/122/143 156/102/130 153/129/151
f 152/123/133 154/103/131 156/102/130
f 136/103/132 154/103/131 155/121/150 137/121/142
f 139/140/148 140/139/140 141/138/137 142/141/147
f 137/121/142 155/121/150 153/129/151 135/129/153
f 125/108/135 141/112/137 162/109/121
f 165/114/122 164/132/122 129/111/125
f 127/115/128 140/117/140 166/118/141
f 162/109/121 141/112/137 129/111/125
f 143/108/158 172/143/165 171/135/159
f 147/111/120 173/144/124 174/136/123
f 145/115/144 176/145/166 175/137/161
f 158/117/156 175/137/161 177/134/157
f 147/111/120 159/112/160 171/135/159
f 177/99/157 175/99/161 176/99/166
f 178/99/154 177/99/157 168/99/148
f 177/99/157 176/99/166 166/99/141
f 168/99/148 177/99/157 166/99/141
f 173/99/124 171/99/159 172/99/165
f 170/99/164 173/99/124 172/99/165
f 176/99/166 174/99/123 167/99/122
f 173/99/124 170/99/164 162/99/121
f 169/99/152 178/99/154 168/99/148
f 167/99/122 166/99/141 176/99/166
f 165/99/122 167/99/122 174/99/123
f 164/99/122 165/99/122 174/99/123
f 163/99/136 162/99/121 170/99/164
f 163/99/136 170/99/164 161/99/149
