# Blender 4.0.2
# www.blender.org
mtllib washing.mtl
o Cube_Cube.003
v -1.954381 0.266429 -0.282827
v -1.954381 0.266429 0.582405
v -1.954381 0.516338 -0.282742
v -1.954381 0.516338 0.582490
v -1.958646 0.516338 0.582490
v -1.958646 0.266429 0.582405
v -1.958646 0.516338 -0.282742
v -1.958646 0.266429 -0.282827
v -1.954381 0.266428 -1.719479
v -1.954381 0.266428 -1.029537
v -1.954381 0.516338 -1.719394
v -1.954381 0.516338 -1.029453
v -1.958646 0.516338 -1.029453
v -1.958646 0.266428 -1.029537
v -1.958646 0.516338 -1.719394
v -1.958646 0.266428 -1.719479
vn 1.0000 -0.0000 -0.0000
vn -0.0000 0.0003 -1.0000
vn -0.0000 -1.0000 -0.0000
vn -0.0000 -0.0003 1.0000
vn -0.0000 1.0000 -0.0000
vt 0.556359 0.107173
vt 0.586088 0.004101
vt 0.586102 0.107161
vt 0.556357 0.004068
vt 0.586540 0.003937
vt 0.555907 0.107337
vt 0.594248 0.086421
vt 0.623997 0.004153
vt 0.624032 0.086380
vt 0.594247 0.004099
vt 0.624432 0.003959
vt 0.593813 0.086616
vt 0.586554 0.107321
vt 0.624469 0.086570
vt 0.555907 0.003906
vt 0.593813 0.003906
s 0
usemtl gray_plastic
f 2/1/1 3/2/1 4/3/1
f 1/4/2 7/5/2 3/2/2
f 6/6/3 1/4/3 2/1/3
f 4/3/4 6/6/4 2/1/4
f 10/7/1 11/8/1 12/9/1
f 9/10/2 15/11/2 11/8/2
f 14/12/3 9/10/3 10/7/3
f 12/9/4 14/12/4 10/7/4
f 3/2/5 5/13/5 4/3/5
f 11/8/5 13/14/5 12/9/5
f 2/1/1 1/4/1 3/2/1
f 1/4/2 8/15/2 7/5/2
f 6/6/3 8/15/3 1/4/3
f 4/3/4 5/13/4 6/6/4
f 10/7/1 9/10/1 11/8/1
f 9/10/2 16/16/2 15/11/2
f 14/12/3 16/16/3 9/10/3
f 12/9/4 13/14/4 14/12/4
f 3/2/5 7/5/5 5/13/5
f 11/8/5 15/11/5 13/14/5
o Cube_Cube.004
v -2.456092 0.240763 1.171362
v -2.456092 0.240762 -1.985130
v -1.956092 0.240763 1.171362
v -1.956092 0.240762 -1.985130
v -2.456092 0.542005 1.171362
v -2.456092 0.542004 -1.985130
v -1.956092 0.542004 -1.985130
v -1.956092 0.542005 1.171362
v -2.347816 0.542004 0.815619
v -2.347816 0.542004 -1.629395
v -2.064368 0.542004 -1.629395
v -2.064368 0.542004 0.815619
v -2.456092 0.264527 1.145031
v -2.456092 0.264526 -1.958902
v -2.456092 0.518240 1.145031
v -2.456092 0.518240 -1.958902
v -1.956092 0.264526 -1.958902
v -1.956092 0.264527 1.145031
v -1.956092 0.518240 -1.958902
v -1.956092 0.518240 1.145031
v -2.456092 0.240762 -1.045576
v -2.456092 0.240762 0.471346
v -1.956092 0.240762 0.471346
v -1.956092 0.240762 -1.045576
v -1.956092 0.542004 -1.045576
v -1.956092 0.542004 0.471346
v -2.456092 0.542004 0.471346
v -2.456092 0.542004 -1.045576
v -2.064368 0.542004 -1.012794
v -2.064368 0.542004 0.438571
v -2.347816 0.542004 0.438571
v -2.347816 0.542004 -1.012794
v -2.456092 0.264527 0.485902
v -2.456092 0.264527 0.456790
v -2.456092 0.264527 -1.031020
v -2.456092 0.264527 -1.060132
v -2.456092 0.518240 0.456680
v -2.456092 0.518240 0.486011
v -2.456092 0.518240 -1.060242
v -2.456092 0.518240 -1.030910
v -1.956092 0.264527 -1.060132
v -1.956092 0.264527 -1.031020
v -1.956092 0.264527 0.456790
v -1.956092 0.264527 0.485902
v -1.956092 0.518240 -1.030910
v -1.956092 0.518240 -1.060241
v -1.956092 0.518240 0.486011
v -1.956092 0.518240 0.456680
vn -0.0000 -0.0000 -1.0000
vn -0.0000 -0.0000 1.0000
vn -0.0000 -1.0000 -0.0000
vn -0.0000 -0.0004 1.0000
vn -0.0000 1.0000 -0.0000
vn -0.0000 -0.0004 -1.0000
vn 1.0000 -0.0000 -0.0000
vn -1.0000 -0.0000 -0.0000
vt 0.098678 0.039595
vt 0.039443 0.003906
vt 0.098678 0.003906
vt 0.039443 0.413546
vt 0.098678 0.449234
vt 0.039443 0.449234
vt 0.188704 0.416518
vt 0.129469 0.240283
vt 0.188704 0.240283
vt 0.129469 0.210225
vt 0.188704 0.210225
vt 0.489572 0.033964
vt 0.548807 0.112051
vt 0.489572 0.112051
vt 0.548807 0.142109
vt 0.489572 0.142109
vt 0.548808 0.220183
vt 0.489572 0.220183
vt 0.129469 0.033964
vt 0.188704 0.033964
vt 0.489572 0.003906
vt 0.548808 0.033964
vt 0.129469 0.003906
vt 0.188704 0.003906
vt 0.482473 0.246906
vt 0.423237 0.140428
vt 0.482473 0.140428
vt 0.482473 0.276964
vt 0.423237 0.246906
vt 0.482473 0.110371
vt 0.423237 0.003906
vt 0.482473 0.003906
vt 0.423237 0.110371
vt 0.039443 0.039595
vt 0.098678 0.413546
vt 0.129469 0.416518
vt 0.548808 0.003906
vt 0.423237 0.276964
vt 0.381040 0.007026
vt 0.413913 0.003906
vt 0.411097 0.007026
vt 0.411097 0.374750
vt 0.413913 0.266548
vt 0.413913 0.377857
vt 0.378224 0.266548
vt 0.381040 0.374750
vt 0.378224 0.377857
vt 0.085850 0.371401
vt 0.333211 0.294926
vt 0.336027 0.374738
vt 0.333211 0.377857
vt 0.085850 0.081739
vt 0.052270 0.081739
vt 0.098678 0.150904
vt 0.039443 0.711875
vt 0.098678 0.823185
vt 0.039443 0.823185
vt 0.336027 0.007013
vt 0.368900 0.003906
vt 0.366084 0.007013
vt 0.366084 0.374738
vt 0.368900 0.377857
vt 0.368900 0.115216
vt 0.411097 0.264823
vt 0.413913 0.086837
vt 0.368900 0.294926
vt 0.098678 0.330614
vt 0.085850 0.326731
vt 0.381040 0.264810
vt 0.378224 0.086837
vt 0.381040 0.088575
vt 0.336027 0.116953
vt 0.336027 0.293189
vt 0.333211 0.115216
vt 0.336027 0.113478
vt 0.381040 0.085100
vt 0.366084 0.293202
vt 0.039443 0.330614
vt 0.052270 0.154788
vt 0.052270 0.326731
vt 0.085850 0.154788
vt 0.039443 0.532165
vt 0.098678 0.532165
vt 0.098678 0.711875
vt 0.381040 0.268285
vt 0.336027 0.296663
vt 0.039443 0.150904
vt 0.366084 0.296650
vt 0.366084 0.113491
vt 0.366084 0.116940
vt 0.411097 0.268272
vt 0.411097 0.085113
vt 0.411097 0.088562
vt 0.052270 0.371401
vt 0.378224 0.003906
vt 0.333211 0.003906
s 0
usemtl oaktype_wood
f 22/17/6 20/18/6 18/19/6
f 24/20/7 17/21/7 19/22/7
f 64/23/8 56/24/8 61/25/8
f 61/25/9 51/26/9 58/27/9
f 29/28/10 60/29/10 49/30/10
f 49/30/9 63/31/9 54/32/9
f 54/32/8 36/33/8 31/34/8
f 58/27/10 50/35/10 59/36/10
f 31/37/6 34/38/6 29/28/6
f 59/36/11 53/39/11 64/40/11
f 52/41/10 33/42/10 30/43/10
f 55/44/11 57/45/11 52/41/11
f 32/46/8 62/47/8 55/48/8
f 30/43/7 35/49/7 32/46/7
f 22/17/6 23/50/6 20/18/6
f 24/20/7 21/51/7 17/21/7
f 64/23/8 53/52/8 56/24/8
f 61/25/9 56/24/9 51/26/9
f 29/28/10 34/38/10 60/29/10
f 49/30/9 60/29/9 63/31/9
f 54/32/8 63/31/8 36/33/8
f 58/27/10 51/26/10 50/35/10
f 31/37/6 36/53/6 34/38/6
f 59/36/11 50/35/11 53/39/11
f 52/41/10 57/45/10 33/42/10
f 55/44/11 62/54/11 57/45/11
f 32/46/8 35/49/8 62/47/8
f 30/43/7 33/42/7 35/49/7
s 1
f 36/55/12 19/56/12 34/57/12
f 33/58/12 40/59/12 20/60/12
f 41/61/12 35/62/12 23/63/12
f 24/20/10 25/64/10 21/51/10
f 43/65/13 31/66/13 21/67/13
f 23/50/10 26/68/10 27/69/10
f 44/70/10 26/68/10 22/17/10
f 40/71/8 18/72/8 20/73/8
f 32/74/13 18/75/13 30/76/13
f 21/67/13 29/77/13 17/78/13
f 20/60/12 35/62/12 33/58/12
f 37/79/13 30/76/13 18/75/13
f 58/80/12 39/81/12 40/59/12
f 29/77/13 38/82/13 17/78/13
f 43/83/10 25/64/10 47/84/10
f 61/85/12 42/86/12 64/87/12
f 43/65/13 56/88/13 53/89/13
f 44/90/13 32/74/13 55/91/13
f 42/86/12 36/55/12 63/92/12
f 39/81/12 34/57/12 19/56/12
f 50/93/13 37/79/13 38/82/13
f 42/94/10 45/95/10 46/96/10
f 43/83/10 48/97/10 44/70/10
f 39/98/8 17/21/8 38/99/8
f 37/100/8 39/98/8 38/99/8
f 41/61/12 61/85/12 62/101/12
f 42/86/12 63/92/12 64/87/12
f 43/65/13 53/89/13 54/102/13
f 44/90/13 55/91/13 56/88/13
f 41/103/10 27/69/10 45/95/10
f 50/93/13 38/82/13 49/104/13
f 52/105/13 37/79/13 51/106/13
f 53/89/13 49/104/13 54/102/13
f 52/105/13 56/88/13 55/91/13
f 58/80/12 40/59/12 57/107/12
f 60/108/12 39/81/12 59/109/12
f 58/80/12 62/101/12 61/85/12
f 63/92/12 59/109/12 64/87/12
f 42/94/10 28/110/10 24/20/10
f 36/55/12 24/111/12 19/56/12
f 33/58/12 57/107/12 40/59/12
f 41/61/12 62/101/12 35/62/12
f 24/20/10 28/110/10 25/64/10
f 43/65/13 54/102/13 31/66/13
f 23/50/10 22/17/10 26/68/10
f 44/70/10 48/97/10 26/68/10
f 40/71/8 37/100/8 18/72/8
f 32/74/13 22/112/13 18/75/13
f 21/67/13 31/66/13 29/77/13
f 20/60/12 23/63/12 35/62/12
f 37/79/13 52/105/13 30/76/13
f 58/80/12 59/109/12 39/81/12
f 29/77/13 49/104/13 38/82/13
f 43/83/10 21/51/10 25/64/10
f 61/85/12 41/61/12 42/86/12
f 43/65/13 44/90/13 56/88/13
f 44/90/13 22/112/13 32/74/13
f 42/86/12 24/111/12 36/55/12
f 39/81/12 60/108/12 34/57/12
f 50/93/13 51/106/13 37/79/13
f 42/94/10 41/103/10 45/95/10
f 43/83/10 47/84/10 48/97/10
f 39/98/8 19/22/8 17/21/8
f 37/100/8 40/71/8 39/98/8
f 41/103/10 23/50/10 27/69/10
f 53/89/13 50/93/13 49/104/13
f 52/105/13 51/106/13 56/88/13
f 58/80/12 57/107/12 62/101/12
f 63/92/12 60/108/12 59/109/12
f 42/94/10 46/96/10 28/110/10
